<svg width="650" height="240" viewBox="0 0 650 240" fill="none" xmlns="http://www.w3.org/2000/svg" style="background:#1e293b; border-radius:8px; border:1px solid #475569; font-family: sans-serif;">
  <!-- Title -->
  <text x="20" y="35" fill="#38bdf8" font-size="14" font-weight="bold">Maximum Operating Frequency (Fmax) Scaling</text>
  <!-- Grid Lines -->
  <line x1="220" y1="60" x2="220" y2="200" stroke="#475569" stroke-width="1" />
  <line x1="345" y1="60" x2="345" y2="200" stroke="#334155" stroke-dasharray="4" />
  <line x1="470" y1="60" x2="470" y2="200" stroke="#334155" stroke-dasharray="4" />
  <line x1="595" y1="60" x2="595" y2="200" stroke="#334155" stroke-dasharray="4" />
  <text x="220" y="215" fill="#94a3b8" font-size="10" text-anchor="middle">0 MHz</text>
  <text x="345" y="215" fill="#94a3b8" font-size="10" text-anchor="middle">50 MHz</text>
  <text x="470" y="215" fill="#94a3b8" font-size="10" text-anchor="middle">100 MHz</text>
  <text x="595" y="215" fill="#94a3b8" font-size="10" text-anchor="middle">150 MHz</text>
  <!-- Bar 1: Single Cycle -->
  <text x="20" y="85" fill="#e2e8f0" font-size="12" font-weight="600">Single Cycle</text>
  <rect x="220" y="72" width="120" height="20" rx="3" fill="#64748b" />
  <text x="340" y="86" fill="#cbd5e1" font-size="11" font-weight="bold" dx="5">48 MHz</text>
  <!-- Bar 2: 5-Stage (BRAM-based) -->
  <text x="20" y="120" fill="#e2e8f0" font-size="12" font-weight="600">5-Stage (BRAM-based memory)</text>
  <rect x="220" y="107" width="175" height="20" rx="3" fill="#475569" />
  <text x="395" y="121" fill="#cbd5e1" font-size="11" font-weight="bold" dx="5">70 MHz</text>
  <!-- Bar 3: 5-Stage (LUT-based) -->
  <text x="20" y="155" fill="#e2e8f0" font-size="12" font-weight="600">5-Stage (LUT-based memory)</text>
  <rect x="220" y="142" width="230" height="20" rx="3" fill="#0284c7" />
  <text x="450" y="156" fill="#cbd5e1" font-size="11" font-weight="bold" dx="5">92 MHz</text>
  <!-- Bar 4: 8-Stage (Active) -->
  <text x="20" y="190" fill="#38bdf8" font-size="12" font-weight="bold">8-Stage (Active)</text>
  <rect x="220" y="177" width="318.2" height="20" rx="3" fill="#38bdf8" />
  <text x="538.2" y="191" fill="#38bdf8" font-size="11" font-weight="bold" dx="5">127.29 MHz</text>
</svg>
